<svg id="Layer_1" data-name="Layer 1" xmlns="http://www.w3.org/2000/svg" viewBox="0 0 50 42.94">
  <defs>
    <style>
      .cls-1 {
        fill: #0a141e;
      }
    </style>
  </defs>
  <path class="cls-1" d="M50,23.42l-.4-3.05H43A20.84,20.84,0,0,0,34.12,14l-.21-.9h9.48c3,0,3.69,1.47,4.26,3.09h2.2L48.61,6.81H29.93v7.74a16.77,16.77,0,0,1,9.74,5.82h-13V4.53H23.36V20.37h-13a16.77,16.77,0,0,1,9.74-5.82V6.81H1.39L.15,16.14h2.2c.57-1.62,1.25-3.09,4.26-3.09h9.48l-.21.9A20.84,20.84,0,0,0,7,20.37H.4L0,23.42H5.1A14.92,14.92,0,0,0,3.6,29.9c0,9.28,8.71,16.88,19.76,17.57h0V38.65C14.87,38,8.24,32.77,8.24,26.35a9.32,9.32,0,0,1,.48-2.93H23.36V38.65c.13,0,.89.06,1.64.06s1.51-.05,1.64-.06V23.42H41.28a9.32,9.32,0,0,1,.48,2.93c0,6.42-6.63,11.69-15.12,12.3v8.82h0c11-.69,19.76-8.29,19.76-17.57a14.92,14.92,0,0,0-1.5-6.48Z" transform="translate(0 -4.53)"/>
</svg>
